<mxfile host="app.diagrams.net" agent="Mozilla/5.0 (Windows NT 10.0; Win64; x64) AppleWebKit/537.36 (KHTML, like Gecko) Chrome/131.0.0.0 Safari/537.36 Edg/131.0.0.0" version="24.7.16">
  <diagram name="第 1 页" id="oymj5DaDTNhLy0E2ORKF">
    <mxGraphModel dx="516" dy="251" grid="0" gridSize="10" guides="1" tooltips="1" connect="1" arrows="1" fold="1" page="1" pageScale="1" pageWidth="827" pageHeight="1169" math="0" shadow="0">
      <root>
        <mxCell id="0" />
        <mxCell id="1" parent="0" />
        <mxCell id="FjnOb9P7YSw_5cY1MGsP-1" value="动力学模型" style="rounded=0;whiteSpace=wrap;html=1;" vertex="1" parent="1">
          <mxGeometry x="100" y="400" width="120" height="60" as="geometry" />
        </mxCell>
        <mxCell id="FjnOb9P7YSw_5cY1MGsP-2" value="悬浮控制&lt;div&gt;&lt;br&gt;&lt;div&gt;牵引控制&lt;/div&gt;&lt;/div&gt;" style="rounded=0;whiteSpace=wrap;html=1;" vertex="1" parent="1">
          <mxGeometry x="280" y="400" width="120" height="60" as="geometry" />
        </mxCell>
        <mxCell id="FjnOb9P7YSw_5cY1MGsP-3" value="电磁有限元模型" style="rounded=0;whiteSpace=wrap;html=1;" vertex="1" parent="1">
          <mxGeometry x="460" y="400" width="120" height="60" as="geometry" />
        </mxCell>
        <mxCell id="FjnOb9P7YSw_5cY1MGsP-4" value="" style="endArrow=classic;html=1;rounded=0;exitX=1.001;exitY=0.164;exitDx=0;exitDy=0;exitPerimeter=0;" edge="1" parent="1" source="FjnOb9P7YSw_5cY1MGsP-1">
          <mxGeometry width="50" height="50" relative="1" as="geometry">
            <mxPoint x="230" y="410" as="sourcePoint" />
            <mxPoint x="280" y="410" as="targetPoint" />
          </mxGeometry>
        </mxCell>
        <mxCell id="FjnOb9P7YSw_5cY1MGsP-8" value="" style="endArrow=classic;html=1;rounded=0;entryX=0.999;entryY=0.813;entryDx=0;entryDy=0;entryPerimeter=0;" edge="1" parent="1" target="FjnOb9P7YSw_5cY1MGsP-1">
          <mxGeometry width="50" height="50" relative="1" as="geometry">
            <mxPoint x="280" y="448.86" as="sourcePoint" />
            <mxPoint x="230" y="448.86" as="targetPoint" />
          </mxGeometry>
        </mxCell>
        <mxCell id="FjnOb9P7YSw_5cY1MGsP-10" value="" style="endArrow=classic;html=1;rounded=0;exitX=-0.011;exitY=0.835;exitDx=0;exitDy=0;exitPerimeter=0;" edge="1" parent="1" source="FjnOb9P7YSw_5cY1MGsP-3">
          <mxGeometry width="50" height="50" relative="1" as="geometry">
            <mxPoint x="450" y="450" as="sourcePoint" />
            <mxPoint x="400" y="450" as="targetPoint" />
          </mxGeometry>
        </mxCell>
        <mxCell id="FjnOb9P7YSw_5cY1MGsP-12" value="" style="endArrow=classic;html=1;rounded=0;entryX=-0.013;entryY=0.164;entryDx=0;entryDy=0;entryPerimeter=0;" edge="1" parent="1" target="FjnOb9P7YSw_5cY1MGsP-3">
          <mxGeometry width="50" height="50" relative="1" as="geometry">
            <mxPoint x="400" y="410" as="sourcePoint" />
            <mxPoint x="450" y="410" as="targetPoint" />
          </mxGeometry>
        </mxCell>
        <mxCell id="FjnOb9P7YSw_5cY1MGsP-14" value="" style="endArrow=classic;html=1;rounded=0;entryX=-0.013;entryY=0.507;entryDx=0;entryDy=0;entryPerimeter=0;" edge="1" parent="1" target="FjnOb9P7YSw_5cY1MGsP-3">
          <mxGeometry width="50" height="50" relative="1" as="geometry">
            <mxPoint x="400" y="429.92" as="sourcePoint" />
            <mxPoint x="450" y="429.92" as="targetPoint" />
          </mxGeometry>
        </mxCell>
        <mxCell id="FjnOb9P7YSw_5cY1MGsP-19" value="电磁力" style="text;html=1;align=center;verticalAlign=middle;whiteSpace=wrap;rounded=0;" vertex="1" parent="1">
          <mxGeometry x="220" y="427" width="60" height="30" as="geometry" />
        </mxCell>
        <mxCell id="FjnOb9P7YSw_5cY1MGsP-20" value="运动参数" style="text;html=1;align=center;verticalAlign=middle;whiteSpace=wrap;rounded=0;" vertex="1" parent="1">
          <mxGeometry x="218" y="384" width="60" height="30" as="geometry" />
        </mxCell>
        <mxCell id="FjnOb9P7YSw_5cY1MGsP-21" value="运动参数" style="text;html=1;align=center;verticalAlign=middle;whiteSpace=wrap;rounded=0;" vertex="1" parent="1">
          <mxGeometry x="396" y="385" width="60" height="30" as="geometry" />
        </mxCell>
        <mxCell id="FjnOb9P7YSw_5cY1MGsP-22" value="电流" style="text;html=1;align=center;verticalAlign=middle;whiteSpace=wrap;rounded=0;" vertex="1" parent="1">
          <mxGeometry x="397" y="407" width="60" height="30" as="geometry" />
        </mxCell>
        <mxCell id="FjnOb9P7YSw_5cY1MGsP-23" value="电磁力" style="text;html=1;align=center;verticalAlign=middle;whiteSpace=wrap;rounded=0;" vertex="1" parent="1">
          <mxGeometry x="398" y="428" width="60" height="30" as="geometry" />
        </mxCell>
        <mxCell id="FjnOb9P7YSw_5cY1MGsP-24" value="Simpack" style="text;html=1;align=center;verticalAlign=middle;whiteSpace=wrap;rounded=0;" vertex="1" parent="1">
          <mxGeometry x="126" y="367" width="60" height="30" as="geometry" />
        </mxCell>
        <mxCell id="FjnOb9P7YSw_5cY1MGsP-25" value="Matlab/Simulink" style="text;html=1;align=center;verticalAlign=middle;whiteSpace=wrap;rounded=0;" vertex="1" parent="1">
          <mxGeometry x="310" y="370" width="60" height="30" as="geometry" />
        </mxCell>
        <mxCell id="FjnOb9P7YSw_5cY1MGsP-26" value="Ansys Maxwell" style="text;html=1;align=center;verticalAlign=middle;whiteSpace=wrap;rounded=0;" vertex="1" parent="1">
          <mxGeometry x="477" y="370" width="86" height="30" as="geometry" />
        </mxCell>
      </root>
    </mxGraphModel>
  </diagram>
</mxfile>
